<?xml version="1.0" encoding="utf-8" ?><svg xmlns="http://www.w3.org/2000/svg" xmlns:xlink="http://www.w3.org/1999/xlink" width="1024" height="1024" viewBox="0 0 1024 1024"><path transform="scale(2 2)" d="M372.479 96.4205C389.4 96.0086 406.561 96.7755 423.506 96.3698C465.05 95.3751 466.704 123.001 466.701 156.792L465.938 317.727C465.955 321.563 465.655 325.371 465.554 329.202L464.889 356.53C464.367 374.575 467.562 404.211 444.333 409.519C434.339 411.802 423.281 411.943 413 412.347L385.749 413.462C338.879 414.975 288.591 415.794 241.734 414.438L177.176 412.588L155.189 411.655C151.137 411.492 145.67 411.195 141.766 411.438L141.258 411.473C136.958 410.818 130.702 410.74 126.235 410.572L102.338 409.515C76.6999 408.262 52.4641 407.465 48.437 375.768C46.4434 360.076 47.9254 345.197 48.2345 329.47C48.7059 305.49 48.446 281.599 47.8348 257.639L45.2407 176.679C44.9271 166.605 44.4231 156.643 44.2412 146.487C42.6832 103.11 67.2726 102.992 103.639 101.176C124.202 100.15 144.786 99.7808 165.306 99.2284L271.49 97.2277C277.58 97.1157 283.839 96.4706 289.869 96.4135L372.479 96.4205ZM260.697 150.62C273.39 153.873 283.408 160.257 283.244 174.529C289.563 167.86 326.287 127.283 332.527 128.399C333.473 130.746 324.668 139.651 323 141.516L307.421 158.724C297.943 169.199 288.526 180.383 278.146 189.94C265.113 201.941 240.488 209.388 227.409 193.922C212.43 175.034 231.278 148.622 253.425 150.62C254.878 138.322 259.993 121.277 263.887 109.723C246.853 108.612 226.47 109.878 209.336 110.267L107.536 113.349C92.6958 113.934 59.3534 111.748 57.0296 131.823C55.5661 144.468 56.928 158.822 57.7336 171.568C59.682 165.967 60.3002 148.84 62.0784 140.778C63.8738 132.637 74.088 131.325 73.9745 139.058C73.9266 142.321 73.5274 145.583 73.4962 148.883L73.4855 181.945C73.4994 196.628 74.2096 210.901 74.6786 225.538L76.2928 327.674C76.4586 347.309 76.0709 368.285 82.5969 387.217C83.5957 390.114 85.5604 393.048 86.5349 396.032C92.6836 396.869 100.166 397.199 106.395 397.531L130.516 398.778L200.502 401.4C239.154 402.467 277.809 402.012 316.466 402.236C356.604 402.469 398.013 400.221 438.051 398.063C445.401 397.873 451.173 391.716 451.559 384.365C452.841 359.927 453.33 334.877 453.508 310.4L454.352 163.526C454.362 152.133 454.763 140.448 453.292 129.124C450.313 106.197 426.328 108.541 408.88 108.501L332.443 108.62C313.728 108.582 284.723 107.027 266.497 109.723C266.449 113.229 265.672 117.507 265.14 121.036L262.235 140.018C261.751 143.139 260.93 147.591 260.697 150.62ZM270.93 185.908C274.857 182.347 278.719 179.86 278.778 174.024C278.885 163.501 269.04 157.577 259.853 155.886C259.413 160.049 258.128 174.628 255.61 177.055C250.205 178.552 252.376 156.541 252.055 155.86L251.66 155.886C234.743 158.037 221.233 179.493 235.396 189.662C247.935 198.665 259.974 190.392 270.93 185.908Z"/><path transform="scale(2 2)" d="M248.316 221.74C261.583 221.096 294.275 221.447 302.625 230.747C307.989 237.398 308.264 265.148 295.04 266.192C284.929 266.99 273.944 265.57 263.887 264.248C254.98 265.669 233.909 264.246 223.752 264.388C206.642 264.627 205.664 259.322 205.586 243.374C205.509 227.54 211.044 226.192 224.999 223.981C232.688 222.763 240.734 222.772 248.316 221.74ZM257.955 251.526C266.363 253.212 283.465 253.786 292.012 253.75C294.265 246.523 295.288 238.798 286.817 236.8C276.02 234.253 265.166 233.842 254.128 234.011C242.133 234.986 229.859 234.99 218.024 237.389C218.158 240.386 217.696 249.828 218.379 251.743C219.449 252.164 253.204 251.43 257.955 251.526Z"/><path transform="scale(2 2)" d="M380.958 329.255L381.19 296.576C381.268 288.051 378.518 277.088 387.497 274.507C391.727 275.813 393.696 277.226 393.689 282.044L393.279 344.282C393.281 351.698 393.651 364.187 392.538 371.719C391.938 375.777 383.697 377.621 380.958 371.823C379.788 373.595 380.129 376.328 379.197 378.363C377.217 383.106 366.877 382.213 363.328 380.638C360.414 379.345 361.575 367.245 361.581 364.308L361.587 347.796C361.588 343.221 361.529 338.822 362.049 334.295C362.976 325.662 375.077 325.53 380.561 329.3L380.958 329.255Z"/><path fill="#EA7DFF" transform="scale(2 2)" d="M380.958 371.823C379.788 373.595 380.129 376.328 379.197 378.363C377.217 383.106 366.877 382.213 363.328 380.638C360.414 379.345 361.575 367.245 361.581 364.308L361.587 347.796C361.588 343.221 361.529 338.822 362.049 334.295C362.976 325.662 375.077 325.53 380.561 329.3L380.958 329.255C381.257 339.738 379.332 362.92 380.958 371.823Z"/><path fill="#EA7DFF" transform="scale(2 2)" d="M297.518 331.757C297.373 319.445 297.447 306.545 297.658 294.208C297.731 289.972 305.332 287.908 307.933 291.493C310.961 295.253 309.774 307.077 309.774 311.795L309.781 361.623C309.788 368.119 311.783 375.137 303.745 376.851C300.731 376.077 298.489 375.048 297.518 371.823C296.774 373.863 296.995 378.042 296.984 380.373C273.672 387.694 275.262 378.114 275.265 361.68L275.271 346.62C275.279 336.46 273.559 326.086 287.306 327.182C292.576 327.602 294.249 326.659 297.518 331.757Z"/><path transform="scale(2 2)" d="M297.518 331.757C297.373 319.445 297.447 306.545 297.658 294.208C297.731 289.972 305.332 287.908 307.933 291.493C310.961 295.253 309.774 307.077 309.774 311.795L309.781 361.623C309.788 368.119 311.783 375.137 303.745 376.851C300.731 376.077 298.489 375.048 297.518 371.823C297.717 367.65 297.535 362.326 297.531 358.043L297.518 331.757Z"/><path fill="#EA7DFF" transform="scale(2 2)" d="M170.721 308.545C170.7 300.629 168.065 290.179 177.431 288.14C186.682 290.649 183.194 308.783 183.195 317.452L183.255 354.355C183.265 362.889 186.752 375.312 178.319 378.267C175.541 377.692 174.008 377.339 171.915 375.194C168.496 386.349 150.033 384.734 149.896 374.22C149.957 364.46 149.934 354.179 149.938 344.472C149.946 327.809 154.436 322.612 170.721 328.193L170.684 315.671C170.667 314.084 170.526 309.9 170.721 308.545Z"/><path transform="scale(2 2)" d="M170.721 308.545C170.7 300.629 168.065 290.179 177.431 288.14C186.682 290.649 183.194 308.783 183.195 317.452L183.255 354.355C183.265 362.889 186.752 375.312 178.319 378.267C175.541 377.692 174.008 377.339 171.915 375.194C170.204 368.954 170.721 353.497 170.716 346.089L170.721 308.545Z"/><path transform="scale(2 2)" d="M212.504 327.25C213.027 316.557 213.046 305.747 213.471 295.018C213.688 289.528 211.749 279.463 220.123 279.68C229.473 279.922 225.728 301.934 225.707 308.874L225.243 354.439C225.25 359.445 226.646 370.684 223.347 373.739C219.622 377.189 215.503 376.23 213.505 371.823C212.766 374.902 212.978 378.595 210.399 380.95C206.173 384.674 194.097 383.381 193.831 375.873C193.637 370.419 193.767 364.838 193.76 359.35L193.741 343.712C193.729 327.428 196.152 324.451 212.504 327.25Z"/><path fill="#EA7DFF" transform="scale(2 2)" d="M213.505 371.823C212.766 374.902 212.978 378.595 210.399 380.95C206.173 384.674 194.097 383.381 193.831 375.873C193.637 370.419 193.767 364.838 193.76 359.35L193.741 343.712C193.729 327.428 196.152 324.451 212.504 327.25L212.491 353.963C212.492 357.996 212.037 368.767 213.505 371.823Z"/><path transform="scale(2 2)" d="M339.402 329.255C340.103 316.162 338.917 299.223 340.616 286.958C341.562 281.775 348.442 280.506 351.447 284.663C354.071 288.292 352.32 297.112 352.281 301.413L351.818 341.279C351.654 351.202 351.96 361.184 351.243 371.082C351.03 374.017 347.226 375.934 344.862 376.851C341.843 375.623 340.279 375.193 339.402 371.823C338.279 374.895 339.03 380.737 334.085 381.459C316.296 384.056 319.717 376.576 319.731 363.131L319.82 345.626C319.883 333.724 317.721 325.763 332.691 326.994C336.018 327.267 336.73 327.182 339.402 329.255Z"/><path fill="#EA7DFF" transform="scale(2 2)" d="M339.402 371.823C338.279 374.895 339.03 380.737 334.085 381.459C316.296 384.056 319.717 376.576 319.731 363.131L319.82 345.626C319.883 333.724 317.721 325.763 332.691 326.994C336.018 327.267 336.73 327.182 339.402 329.255C339.66 333.207 339.406 340.041 339.406 344.255L339.402 371.823Z"/><path transform="scale(2 2)" d="M127.328 328.193L127.392 306.115C127.388 301.496 127.154 297.249 127.699 292.571C128.366 286.85 139.575 281.495 139.602 297.53L139.516 340.196C139.43 351.156 139.636 361.967 140.265 372.904C140.512 377.18 133.398 381.226 128.566 375.194C124.68 382.203 112.763 385.315 108.656 378.173C106.078 373.691 106.735 335.759 107.863 331.819C110.244 323.502 121.259 326.238 127.021 328.096L127.328 328.193Z"/><path fill="#EA7DFF" transform="scale(2 2)" d="M128.566 375.194C124.68 382.203 112.763 385.315 108.656 378.173C106.078 373.691 106.735 335.759 107.863 331.819C110.244 323.502 121.259 326.238 127.021 328.096L127.328 328.193C127.33 336.062 126.515 370.007 128.566 375.194Z"/><path transform="scale(2 2)" d="M254.128 327.25L254.09 295.327C254.173 278.798 266.329 285.517 266.404 291.497C266.571 297.176 266.485 302.76 266.472 308.398L266.512 361.574C266.519 364.773 266.85 369.165 266.469 372.223C265.597 379.222 257.748 378.375 254.128 373.834C253.623 386.229 235.975 384.506 235.552 374.502C235.257 367.504 235.425 360.384 235.378 353.369C235.833 338.148 230.724 321.242 254.128 327.25Z"/><path fill="#EA7DFF" transform="scale(2 2)" d="M254.128 373.834C253.623 386.229 235.975 384.506 235.552 374.502C235.257 367.504 235.425 360.384 235.378 353.369C235.833 338.148 230.724 321.242 254.128 327.25L254.137 358.55C254.141 363.007 254.42 369.664 254.128 373.834Z"/><path transform="scale(2 2)" d="M425.982 285.749C430.926 286.917 431.759 288.52 432.013 293.472C432.865 310.17 432.827 326.875 432.754 343.593C432.709 353.845 436.692 371.726 425.982 375.194C423.607 374.301 422.627 373.599 420.762 371.823C419.047 378.808 412.248 382.072 406.348 376.989C401.704 372.988 403.601 344.098 403.616 336.916C403.643 324.004 411.086 325.896 420.762 326.124C420.07 314.839 420.242 302.923 420.172 291.591C420.149 287.818 422.606 286.506 425.982 285.749Z"/><path fill="#EA7DFF" transform="scale(2 2)" d="M420.762 371.823C419.047 378.808 412.248 382.072 406.348 376.989C401.704 372.988 403.601 344.098 403.616 336.916C403.643 324.004 411.086 325.896 420.762 326.124L420.771 359.657C420.768 362.527 420.303 369.539 420.762 371.823Z"/><path transform="scale(2 2)" d="M340.875 222.654C372.954 219.129 372.95 257.662 347.16 260.75C316.224 265.411 313.871 225.091 340.875 222.654Z"/><path fill="#EA7DFF" transform="scale(2 2)" d="M342.316 232.094C353.813 228.619 367.132 243.251 347.16 251.526C326.406 254.409 326.325 231.783 342.316 232.094Z"/><path transform="scale(2 2)" d="M159.892 223.75C186.144 220.042 197.91 251.431 167.32 260.204C139.698 266.579 128.956 229.975 159.892 223.75Z"/><path fill="#EA7DFF" transform="scale(2 2)" d="M160.962 232.094C177.124 231.291 185.108 245.832 166.397 251.526C145.939 255.512 146.225 233.608 160.962 232.094Z"/><path transform="scale(2 2)" d="M98.777 225.813C130.906 223.325 129.461 259.177 103.582 262.735C79.4849 267.415 67.5415 232.699 98.777 225.813Z"/><path fill="#EA7DFF" transform="scale(2 2)" d="M99.5189 234.011C122.01 236.351 116.987 251.903 103.582 253.75C88.9976 257.243 78.7243 240.311 99.5189 234.011Z"/><path transform="scale(2 2)" d="M401.176 223.75C430.673 221.03 431.442 257.633 406.559 260.75C381.882 267.162 372.155 230.127 401.176 223.75Z"/><path fill="#EA7DFF" transform="scale(2 2)" d="M401.176 232.787C417.135 231.428 421.838 246.849 406.559 251.526C389.351 254.419 386.89 237.21 401.176 232.787Z"/><path transform="scale(2 2)" d="M92.0482 278.796C97.0566 278.183 99.7936 281.568 99.6911 286.202C99.1019 312.812 96.7693 338.218 99.1027 365.153C99.5429 370.234 99.5565 373.058 94.3571 375.194C91.6819 375.525 89.2257 374.392 88.1041 371.812C83.9354 362.223 86.4229 308.108 87.07 295.604C87.3825 289.567 85.3916 281.691 92.0482 278.796Z"/><path transform="scale(2 2)" d="M372.479 127.519C372.956 127.539 372.822 127.554 373.295 127.8L373.441 128.367C373.11 129.208 334.989 169.331 331.2 173.531C325.092 180.302 316.795 190.467 309.772 195.782C304.227 195.329 318.719 179.049 319.454 178.106C329.202 165.607 358.678 132.562 372.479 127.519Z"/><path transform="scale(2 2)" d="M215.239 134.433C222.528 132.901 209.026 147.259 208.346 148.156C203.158 154.993 197.815 161.884 193.064 169.031C188.249 176.273 183.251 185.41 177.431 191.734C176.776 192.283 177.133 192.133 176.359 192.283L176.086 191.817C175.227 177.829 206.255 137.75 215.239 134.433Z"/><path transform="scale(2 2)" d="M182.569 146.407C183.287 146.735 183.715 147.168 183.728 148.024C183.77 150.837 155.562 192.867 148.005 200.092C144.569 201.197 151.136 187.33 151.795 186.212C156.237 178.67 175.057 151.355 182.569 146.407Z"/><path transform="scale(2 2)" d="M357.945 168.786C358.669 168.876 358.338 168.747 358.938 169.263L358.949 169.986C358.482 171.094 330.435 203.043 326.388 205.168C324.346 203.918 325.871 201.215 326.739 199.575C333.066 187.617 344.781 172.965 357.945 168.786Z"/><path transform="scale(2 2)" d="M402.145 193.249C411.507 193.361 415.687 199.997 404.734 204.651C393.314 204.604 391.136 194.851 402.145 193.249Z"/><path transform="scale(2 2)" d="M423.746 170.807C432.532 170.106 436.836 179.697 425.982 182.211C417.008 183 411.879 173.455 423.746 170.807Z"/><path transform="scale(2 2)" d="M422.198 193.249C431.58 194.358 437.092 201.619 426.813 204.651C416.446 206.013 411.308 198.132 422.198 193.249Z"/><path transform="scale(2 2)" d="M423.746 148.78C434.082 147.86 436.744 157.198 426.813 159.957C417.478 160.357 412.661 152.265 423.746 148.78Z"/><path transform="scale(2 2)" d="M423.746 129.561C428.776 128.97 432.191 130.072 433.285 135.332C432.424 138.802 430.939 139.472 427.72 140.617C416.107 140.868 413.81 131.543 423.746 129.561Z"/><path transform="scale(2 2)" d="M403.589 149.536C413.295 148.44 416.326 158.005 406.559 159.957C398.009 161.638 392.284 152.131 403.589 149.536Z"/><path transform="scale(2 2)" d="M402.145 171.568C411.197 170.729 415.629 177.495 405.609 182.211C395.972 181.854 390.775 173.811 402.145 171.568Z"/><path transform="scale(2 2)" d="M404.734 129.561C409.137 129.777 411.882 129.807 413.427 134.433C412.441 137.273 411.247 138.359 408.434 139.363C399.399 141.338 394.897 132.916 404.734 129.561Z"/><path transform="scale(2 2)" d="M107.254 174.529C113.775 173.316 116.593 183.623 109.618 185.908C102.531 186.946 100.709 177.659 107.254 174.529Z"/><path transform="scale(2 2)" d="M107.254 197.005C115.104 196.812 116.603 205.56 110.508 208.702C102.524 209.489 102.296 199.716 107.254 197.005Z"/><path transform="scale(2 2)" d="M89.24 198.255C95.7495 198.529 97.3361 208.254 90.09 210.285C83.1109 209.883 82.8738 200.374 89.24 198.255Z"/><path transform="scale(2 2)" d="M105.85 129.561C113.749 128.645 114.313 137.726 108.432 140.617C106.336 140.994 105.295 140.495 103.582 139.363C101.479 136.2 101.389 133.639 103.582 130.497L105.85 129.561Z"/><path transform="scale(2 2)" d="M107.254 151.78C109.622 151.561 110.386 152.049 112.19 153.585C113.877 157.273 113.694 161.172 109.618 163.085C102.455 164.467 100.237 155.081 107.254 151.78Z"/><path transform="scale(2 2)" d="M87.2721 131.261C93.337 130.934 95.9086 139.597 89.24 142.546C82.6875 144.097 79.885 134.08 87.2721 131.261Z"/><path transform="scale(2 2)" d="M89.24 153.585C94.8734 154.367 95.6255 163.252 89.24 165.284C82.7947 165.299 80.7658 155.251 89.24 153.585Z"/><path transform="scale(2 2)" d="M87.2721 176.275C94.6366 175.725 96.1799 183.843 90.9053 187.398C83.8111 189.419 81.4362 179.616 87.2721 176.275Z"/><path fill="#EA7DFF" transform="scale(2 2)" d="M57.7336 171.568C59.682 165.967 60.3002 148.84 62.0784 140.778C63.8738 132.637 74.088 131.325 73.9745 139.058C73.9266 142.321 73.5274 145.583 73.4962 148.883L73.4855 181.945C73.4994 196.628 74.2096 210.901 74.6786 225.538L76.2928 327.674C76.4586 347.309 76.0709 368.285 82.5969 387.217C83.5957 390.114 85.5604 393.048 86.5349 396.032C59.9223 393.269 59.7695 379.633 60.0158 356.831C60.385 322.647 61.7823 288.496 60.0527 254.317C59.8327 247.838 60.2839 240.822 59.9108 234.379C58.7586 214.483 57.4796 191.51 57.7336 171.568Z"/></svg>